<mxfile host="app.diagrams.net" modified="2023-10-05T12:06:30.179Z" agent="Mozilla/5.0 (Windows NT 10.0; Win64; x64) AppleWebKit/537.36 (KHTML, like Gecko) Chrome/117.0.0.0 Safari/537.36" version="22.0.2" etag="5sqNY5ppjnK5Z61XvhSE" type="github">
  <diagram name="Halaman-1" id="JY6GP8S4htGks3DoXvZ1">
    <mxGraphModel>
      <root>
        <mxCell id="0" />
        <mxCell id="1" parent="0" />
      </root>
    </mxGraphModel>
  </diagram>
</mxfile>
